<svg width="22" height="21" viewBox="0 0 22 21" fill="none" xmlns="http://www.w3.org/2000/svg">
<g clip-path="url(#clip0_573_935)">
<path fill-rule="evenodd" clip-rule="evenodd" d="M6.67779 0.877765C7.74314 0.83024 8.08373 0.818359 10.7927 0.818359C13.5016 0.818359 13.8422 0.83024 14.9115 0.873805C15.9768 0.92133 16.7016 1.09163 17.3352 1.33717C17.9887 1.59459 18.5471 1.93519 19.1016 2.48964C19.656 3.0441 20.0006 3.59855 20.254 4.25598C20.4996 4.8936 20.6699 5.61836 20.7174 6.67974C20.7649 7.74509 20.7768 8.08172 20.7768 10.7946C20.7768 13.5075 20.7649 13.8441 20.7174 14.9095C20.6699 15.9748 20.4996 16.6996 20.254 17.3333C19.9966 17.9867 19.656 18.5451 19.1016 19.0996C18.5471 19.6541 17.9927 19.9986 17.3352 20.2521C16.6976 20.4976 15.9729 20.6679 14.9115 20.7154C13.8461 20.763 13.5095 20.7748 10.7966 20.7748C8.08373 20.7748 7.7471 20.763 6.68175 20.7154C5.61641 20.6679 4.89166 20.4976 4.25799 20.2521C3.60453 19.9946 3.04611 19.6541 2.49166 19.0996C1.9372 18.5451 1.59265 17.9907 1.33918 17.3333C1.09363 16.6956 0.923337 15.9709 0.875812 14.9095C0.828287 13.8441 0.816406 13.5036 0.816406 10.7946C0.816406 8.08568 0.828287 7.74509 0.875812 6.6837C0.923337 5.61836 1.09363 4.8936 1.33918 4.25994C1.59661 3.60648 1.9372 3.04806 2.49166 2.4936C3.04611 1.93915 3.60057 1.59459 4.25799 1.34113C4.89166 1.09559 5.61641 0.92529 6.67779 0.877765ZM14.8243 2.67578C13.7709 2.62826 13.458 2.61638 10.7927 2.61638C8.1273 2.61638 7.81443 2.6243 6.76096 2.67578C5.7867 2.71935 5.25997 2.88568 4.9075 3.02034C4.44017 3.19855 4.1075 3.41638 3.75898 3.76489C3.41047 4.11341 3.19661 4.44608 3.01443 4.91341C2.87581 5.26588 2.71344 5.79261 2.66987 6.76687C2.62235 7.82034 2.61047 8.13321 2.61047 10.7986C2.61047 13.464 2.62235 13.7768 2.66987 14.8303C2.71344 15.8045 2.87977 16.3313 3.01443 16.6838C3.19265 17.1511 3.41047 17.4838 3.75898 17.8323C4.1075 18.1808 4.44017 18.3946 4.9075 18.5768C5.25997 18.7154 5.7867 18.8778 6.76096 18.9214C7.81443 18.9689 8.1273 18.9808 10.7927 18.9808C13.458 18.9808 13.7709 18.9689 14.8243 18.9214C15.7986 18.8778 16.3253 18.7115 16.6778 18.5768C17.1451 18.3986 17.4778 18.1808 17.8263 17.8323C18.1748 17.4838 18.3887 17.1511 18.5709 16.6838C18.7095 16.3313 18.8719 15.8045 18.9154 14.8303C18.963 13.7768 18.9748 13.464 18.9748 10.7986C18.9748 8.13321 18.963 7.82034 18.9154 6.76687C18.8719 5.79261 18.7055 5.26588 18.5709 4.91341C18.3927 4.44608 18.1748 4.11341 17.8263 3.76489C17.4778 3.41638 17.1451 3.20251 16.6778 3.02034C16.3253 2.88172 15.7986 2.71935 14.8243 2.67578Z" fill="#F5F8F5"/>
<path fill-rule="evenodd" clip-rule="evenodd" d="M5.66797 10.7947C5.66797 7.96299 7.965 5.66992 10.7927 5.66992C13.6205 5.66992 15.9175 7.96695 15.9175 10.7947C15.9175 13.6224 13.6205 15.9195 10.7927 15.9195C7.965 15.9195 5.66797 13.6264 5.66797 10.7947ZM7.46599 10.7947C7.46599 12.6323 8.9551 14.1215 10.7927 14.1215C12.6304 14.1215 14.1195 12.6323 14.1195 10.7947C14.1195 8.95705 12.6304 7.46794 10.7927 7.46794C8.9551 7.46794 7.46599 8.95705 7.46599 10.7947Z" fill="#F5F8F5"/>
<path d="M16.1179 6.66356C16.7784 6.66356 17.3139 6.12807 17.3139 5.46752C17.3139 4.80696 16.7784 4.27148 16.1179 4.27148C15.4573 4.27148 14.9219 4.80696 14.9219 5.46752C14.9219 6.12807 15.4573 6.66356 16.1179 6.66356Z" fill="#F5F8F5"/>
</g>
<defs>
<clipPath id="clip0_573_935">
<rect width="21" height="21" fill="white" transform="translate(0.195312)"/>
</clipPath>
</defs>
</svg>
