<svg width="21" height="21" viewBox="0 0 21 21" fill="none" xmlns="http://www.w3.org/2000/svg">
<path fill-rule="evenodd" clip-rule="evenodd" d="M1.08398 3.18206C1.08398 2.77584 1.24536 2.38625 1.5326 2.09901C1.81984 1.81176 2.20943 1.65039 2.61565 1.65039H17.884C18.0853 1.65006 18.2847 1.68945 18.4708 1.76628C18.6568 1.84312 18.8259 1.9559 18.9684 2.09817C19.1108 2.24044 19.2238 2.40941 19.3008 2.5954C19.3778 2.78139 19.4174 2.98075 19.4173 3.18206V18.4504C19.4175 18.6517 19.3781 18.8512 19.3011 19.0372C19.2242 19.2233 19.1113 19.3924 18.969 19.5348C18.8267 19.6772 18.6576 19.7902 18.4716 19.8672C18.2856 19.9442 18.0862 19.9838 17.8848 19.9837H2.61565C2.41444 19.9837 2.2152 19.9441 2.02932 19.8671C1.84343 19.79 1.67454 19.6771 1.5323 19.5348C1.39007 19.3925 1.27726 19.2236 1.20034 19.0376C1.12341 18.8517 1.08388 18.6524 1.08398 18.4512V3.18206ZM8.34065 8.64039H10.8232V9.88706C11.1815 9.17039 12.0982 8.52539 13.4757 8.52539C16.1165 8.52539 16.7423 9.95289 16.7423 12.5721V17.4237H14.0698V13.1687C14.0698 11.6771 13.7115 10.8354 12.8015 10.8354C11.539 10.8354 11.014 11.7429 11.014 13.1687V17.4237H8.34065V8.64039ZM3.75732 17.3096H6.43065V8.52539H3.75732V17.3087V17.3096ZM6.81315 5.66039C6.81819 5.88929 6.77746 6.11688 6.69335 6.32982C6.60924 6.54276 6.48344 6.73676 6.32334 6.90042C6.16324 7.06408 5.97207 7.19412 5.76103 7.2829C5.54999 7.37168 5.32335 7.41741 5.0944 7.41741C4.86545 7.41741 4.63881 7.37168 4.42777 7.2829C4.21674 7.19412 4.02556 7.06408 3.86546 6.90042C3.70536 6.73676 3.57956 6.54276 3.49545 6.32982C3.41134 6.11688 3.37061 5.88929 3.37565 5.66039C3.38555 5.2111 3.57097 4.78355 3.89222 4.4693C4.21347 4.15504 4.645 3.97907 5.0944 3.97907C5.5438 3.97907 5.97533 4.15504 6.29658 4.4693C6.61783 4.78355 6.80326 5.2111 6.81315 5.66039Z" fill="#F5F8F5"/>
</svg>
