<svg width="22" height="21" viewBox="0 0 22 21" fill="none" xmlns="http://www.w3.org/2000/svg">
<g clip-path="url(#clip0_573_931)">
<path d="M10.7526 0.314453H10.7474C4.95794 0.314453 0.25 5.0237 0.25 10.8145C0.25 13.1113 0.99025 15.2402 2.24894 16.9688L0.940375 20.8695L4.97631 19.5793C6.63663 20.6792 8.61719 21.3145 10.7526 21.3145C16.5421 21.3145 21.25 16.6039 21.25 10.8145C21.25 5.02502 16.5421 0.314453 10.7526 0.314453ZM16.8623 15.1418C16.609 15.8571 15.6036 16.4503 14.8017 16.6236C14.2531 16.7404 13.5364 16.8336 11.1241 15.8335C8.03837 14.5551 6.05125 11.4195 5.89638 11.2161C5.74806 11.0126 4.6495 9.55577 4.6495 8.04902C4.6495 6.54227 5.41469 5.80858 5.72312 5.49358C5.97644 5.23502 6.39512 5.11689 6.79675 5.11689C6.92669 5.11689 7.0435 5.12345 7.1485 5.1287C7.45694 5.14183 7.61181 5.1602 7.81525 5.64714C8.06856 6.25745 8.68544 7.7642 8.75894 7.91908C8.83375 8.07395 8.90856 8.28395 8.80356 8.48739C8.70512 8.69739 8.6185 8.79058 8.46362 8.96908C8.30875 9.14758 8.16175 9.28408 8.00688 9.4757C7.86512 9.64239 7.705 9.82089 7.8835 10.1293C8.062 10.4312 8.67887 11.4379 9.58712 12.2464C10.7592 13.2898 11.7094 13.6232 12.0494 13.765C12.3027 13.87 12.6046 13.845 12.7896 13.6481C13.0246 13.3948 13.3146 12.9748 13.6099 12.5614C13.8199 12.2648 14.0851 12.228 14.3633 12.333C14.6468 12.4315 16.147 13.173 16.4554 13.3266C16.7639 13.4815 16.9673 13.555 17.0421 13.6849C17.1156 13.8148 17.1156 14.4251 16.8623 15.1418Z" fill="white"/>
</g>
<defs>
<clipPath id="clip0_573_931">
<rect width="21" height="21" fill="white" transform="translate(0.195312)"/>
</clipPath>
</defs>
</svg>
