<svg width="22" height="21" viewBox="0 0 22 21" fill="none" xmlns="http://www.w3.org/2000/svg">
<g clip-path="url(#clip0_573_928)">
<path d="M11.4525 10.4554L16.1783 17.2149H14.2388L10.3825 11.6991V11.6988L9.81634 10.8891L5.31152 4.44531H7.25099L10.8864 9.64568L11.4525 10.4554Z" fill="white"/>
<path d="M18.9809 0.314453H2.5191C1.26594 0.314453 0.25 1.33039 0.25 2.58355V19.0454C0.25 20.2985 1.26594 21.3145 2.5191 21.3145H18.9809C20.2341 21.3145 21.25 20.2985 21.25 19.0454V2.58355C21.25 1.33039 20.2341 0.314453 18.9809 0.314453ZM13.6445 18.1229L9.7421 12.4435L4.85631 18.1229H3.59357L9.18142 11.6278L3.59357 3.49526H7.85553L11.5508 8.87328L16.1773 3.49526H17.4401L12.1117 9.68915H12.1113L17.9064 18.1229H13.6445Z" fill="white"/>
</g>
<defs>
<clipPath id="clip0_573_928">
<rect width="21" height="21" fill="white" transform="translate(0.195312)"/>
</clipPath>
</defs>
</svg>
