<svg width="145" height="145" viewBox="0 0 145 145" fill="none" xmlns="http://www.w3.org/2000/svg">
<g clip-path="url(#clip0_496_1220)">
<path d="M26.0689 107.586C24.6826 107.578 23.2046 107.573 21.6223 107.573C17.207 107.573 13.1646 109.53 11.5333 114.363C5.98284 114.363 1.4834 118.862 1.4834 124.413C1.4834 129.963 5.98284 134.462 11.5333 134.462H26.0686L26.0689 107.586Z" fill="#27C661"/>
<path d="M119.74 107.586C121.126 107.578 122.604 107.573 124.186 107.573C128.602 107.573 132.644 109.53 134.275 114.363C139.826 114.363 144.325 118.862 144.325 124.413C144.325 129.963 139.826 134.462 134.275 134.462C131.433 134.462 123.373 134.462 119.74 134.462V107.586H119.74Z" fill="#27C661"/>
<path d="M125.125 133.978H58.231V41.5889C58.231 39.506 59.9196 37.8174 62.0025 37.8174H121.354C123.437 37.8174 125.125 39.506 125.125 41.5889L125.125 133.978Z" fill="#134737"/>
<path d="M112.838 65.3372H89.5645V50.9951H112.838C113.906 50.9951 114.772 51.8611 114.772 52.9293V63.4033C114.771 64.4712 113.906 65.3372 112.838 65.3372Z" fill="#DBFF66"/>
<path d="M112.838 91.9387H89.5645V77.5967H112.838C113.906 77.5967 114.772 78.4626 114.772 79.5308V90.0049C114.771 91.0728 113.906 91.9387 112.838 91.9387Z" fill="#DBFF66"/>
<path d="M112.838 118.54H89.5645V104.198H112.838C113.906 104.198 114.772 105.064 114.772 106.132V116.606C114.771 117.674 113.906 118.54 112.838 118.54Z" fill="#DBFF66"/>
<path d="M91.9524 133.979H24.5098V3.96199C24.5098 1.87905 26.1984 0.19043 28.2813 0.19043H88.1808C90.2638 0.19043 91.9524 1.87905 91.9524 3.96199V133.979Z" fill="#002C1F"/>
<path d="M141.899 130.862H3.90917C2.24952 130.862 0.904297 132.208 0.904297 133.867V141.019C0.904297 142.678 2.24952 144.023 3.90917 144.023H141.899C143.559 144.023 144.904 142.678 144.904 141.019V133.867C144.904 132.208 143.559 130.862 141.899 130.862Z" fill="#002117"/>
<path d="M66.6366 102.679H49.5825C48.8858 102.679 48.3208 103.243 48.3208 103.94V130.862H67.8981V103.94C67.8981 103.243 67.3333 102.679 66.6366 102.679Z" fill="#002117"/>
<path d="M61.7421 20.993H54.4765C53.7799 20.993 53.2148 20.4283 53.2148 19.7313V12.4658C53.2148 11.7691 53.7796 11.2041 54.4765 11.2041H61.7421C62.4387 11.2041 63.0037 11.7689 63.0037 12.4658V19.7313C63.0035 20.4283 62.4387 20.993 61.7421 20.993Z" fill="#C8FFC4"/>
<path d="M80.3607 20.993H73.0952C72.3985 20.993 71.8335 20.4283 71.8335 19.7313V12.4658C71.8335 11.7691 72.3982 11.2041 73.0952 11.2041H80.3607C81.0574 11.2041 81.6224 11.7689 81.6224 12.4658V19.7313C81.6224 20.4283 81.0577 20.993 80.3607 20.993Z" fill="#C8FFC4"/>
<path d="M61.7421 43.8621H54.4765C53.7799 43.8621 53.2148 43.2974 53.2148 42.6005V35.3349C53.2148 34.6383 53.7796 34.0732 54.4765 34.0732H61.7421C62.4387 34.0732 63.0037 34.638 63.0037 35.3349V42.6005C63.0035 43.2974 62.4387 43.8621 61.7421 43.8621Z" fill="#C8FFC4"/>
<path d="M80.3607 43.8621H73.0952C72.3985 43.8621 71.8335 43.2974 71.8335 42.6005V35.3349C71.8335 34.6383 72.3982 34.0732 73.0952 34.0732H80.3607C81.0574 34.0732 81.6224 34.638 81.6224 35.3349V42.6005C81.6224 43.2974 81.0577 43.8621 80.3607 43.8621Z" fill="#C8FFC4"/>
<path d="M61.7421 66.7313H54.4765C53.7799 66.7313 53.2148 66.1665 53.2148 65.4696V58.2041C53.2148 57.5074 53.7796 56.9424 54.4765 56.9424H61.7421C62.4387 56.9424 63.0037 57.5071 63.0037 58.2041V65.4696C63.0035 66.1665 62.4387 66.7313 61.7421 66.7313Z" fill="#C8FFC4"/>
<path d="M80.3607 66.7313H73.0952C72.3985 66.7313 71.8335 66.1665 71.8335 65.4696V58.2041C71.8335 57.5074 72.3982 56.9424 73.0952 56.9424H80.3607C81.0574 56.9424 81.6224 57.5071 81.6224 58.2041V65.4696C81.6224 66.1665 81.0577 66.7313 80.3607 66.7313Z" fill="#C8FFC4"/>
<path d="M61.7421 89.5985H54.4765C53.7799 89.5985 53.2148 89.0337 53.2148 88.3368V81.0713C53.2148 80.3746 53.7796 79.8096 54.4765 79.8096H61.7421C62.4387 79.8096 63.0037 80.3743 63.0037 81.0713V88.3368C63.0035 89.0337 62.4387 89.5985 61.7421 89.5985Z" fill="#C8FFC4"/>
<path d="M80.3607 89.5985H73.0952C72.3985 89.5985 71.8335 89.0337 71.8335 88.3368V81.0713C71.8335 80.3746 72.3982 79.8096 73.0952 79.8096H80.3607C81.0574 79.8096 81.6224 80.3743 81.6224 81.0713V88.3368C81.6224 89.0337 81.0577 89.5985 80.3607 89.5985Z" fill="#C8FFC4"/>
<path d="M43.1234 20.993H35.8579C35.1612 20.993 34.5962 20.4283 34.5962 19.7313V12.4658C34.5962 11.7691 35.1609 11.2041 35.8579 11.2041H43.1234C43.8201 11.2041 44.3851 11.7689 44.3851 12.4658V19.7313C44.3851 20.4283 43.8201 20.993 43.1234 20.993Z" fill="#C8FFC4"/>
<path d="M43.1234 43.8621H35.8579C35.1612 43.8621 34.5962 43.2974 34.5962 42.6005V35.3349C34.5962 34.6383 35.1609 34.0732 35.8579 34.0732H43.1234C43.8201 34.0732 44.3851 34.638 44.3851 35.3349V42.6005C44.3851 43.2974 43.8201 43.8621 43.1234 43.8621Z" fill="#C8FFC4"/>
<path d="M43.1234 66.7313H35.8579C35.1612 66.7313 34.5962 66.1665 34.5962 65.4696V58.2041C34.5962 57.5074 35.1609 56.9424 35.8579 56.9424H43.1234C43.8201 56.9424 44.3851 57.5071 44.3851 58.2041V65.4696C44.3851 66.1665 43.8201 66.7313 43.1234 66.7313Z" fill="#C8FFC4"/>
<path d="M43.1234 89.5985H35.8579C35.1612 89.5985 34.5962 89.0337 34.5962 88.3368V81.0713C34.5962 80.3746 35.1609 79.8096 35.8579 79.8096H43.1234C43.8201 79.8096 44.3851 80.3743 44.3851 81.0713V88.3368C44.3851 89.0337 43.8201 89.5985 43.1234 89.5985Z" fill="#C8FFC4"/>
</g>
<defs>
<clipPath id="clip0_496_1220">
<rect width="144" height="144" fill="white" transform="translate(0.904297 0.106445)"/>
</clipPath>
</defs>
</svg>
