<svg width="228" height="114" viewBox="0 0 228 114" fill="none" xmlns="http://www.w3.org/2000/svg">
<path d="M195.141 113.396C203.771 113.396 210.768 106.4 210.768 97.77C210.768 89.1398 203.771 82.1436 195.141 82.1436C186.511 82.1436 179.515 89.1398 179.515 97.77C179.515 106.4 186.511 113.396 195.141 113.396Z" fill="black"/>
<path d="M7.02204 14.3418C7.66612 7.18309 13.5951 1.71923 20.7824 1.65571C64.6252 1.26823 207.765 0.0908384 209.874 1.21578C212.071 2.38683 222.21 52.3271 224.578 64.1277C224.91 65.7836 225.018 67.4613 225.086 69.1489C225.213 72.3261 225.592 77.9015 225.991 83.3402C226.588 91.4773 220.19 98.4523 212.031 98.4857L13.0341 99.3008C5.74068 99.3306 0.309377 93.7734 0.854552 86.5003C2.26963 67.622 5.34857 32.9419 7.02204 14.3418Z" fill="#002E20"/>
<path d="M20.0909 14.3732C20.0909 14.3732 147.839 13.4447 148.267 14.237C150.54 18.4429 152.834 50.3628 154.347 53.8223C155.859 57.2818 13.4609 54.3539 13.4609 54.3539C13.4609 54.3539 17.3289 15.3253 20.0909 14.3732Z" fill="url(#paint0_linear_496_1198)"/>
<path d="M160.092 13.917C160.092 13.917 166.763 52.5769 168.384 52.5505C170.006 52.5241 214.186 53.8317 214.186 52.5505C214.186 51.2689 204.443 13.917 204.443 13.917L160.092 13.917Z" fill="url(#paint1_linear_496_1198)"/>
<path d="M43.9344 113.397C53.3021 113.397 60.8962 105.803 60.8962 96.4354C60.8962 87.0677 53.3021 79.4736 43.9344 79.4736C34.5667 79.4736 26.9727 87.0677 26.9727 96.4354C26.9727 105.803 34.5667 113.397 43.9344 113.397Z" fill="black"/>
<path d="M43.9337 103.501C47.8359 103.501 50.9993 100.338 50.9993 96.4357C50.9993 92.5335 47.8359 89.3701 43.9337 89.3701C40.0315 89.3701 36.8682 92.5335 36.8682 96.4357C36.8682 100.338 40.0315 103.501 43.9337 103.501Z" fill="#C2F89A"/>
<path d="M170.543 75.0706C170.306 73.4777 171.378 71.9988 172.988 72.0506C176.644 72.1684 182.726 73.577 184.695 81.2953C185.119 82.9582 183.783 84.4739 182.068 84.5465L174.716 84.8582C173.183 84.9232 171.848 83.8209 171.622 82.3033L170.543 75.0706Z" fill="url(#paint2_linear_496_1198)"/>
<path d="M219.879 84.5243C220.997 84.5243 221.898 83.6075 221.879 82.4895L221.733 74.1176C221.711 72.8494 220.533 71.9685 219.415 72.5663C216.995 73.8592 213.602 76.7899 214.273 82.9128C214.376 83.8545 215.21 84.5243 216.157 84.5243H219.879Z" fill="url(#paint3_linear_496_1198)"/>
<path d="M138.84 113.399C148.031 113.399 155.482 105.948 155.482 96.7574C155.482 87.5667 148.031 80.1162 138.84 80.1162C129.65 80.1162 122.199 87.5667 122.199 96.7574C122.199 105.948 129.65 113.399 138.84 113.399Z" fill="black"/>
<path d="M138.84 103.689C142.669 103.689 145.772 100.586 145.772 96.7572C145.772 92.9288 142.669 89.8252 138.84 89.8252C135.012 89.8252 131.908 92.9288 131.908 96.7572C131.908 100.586 135.012 103.689 138.84 103.689Z" fill="#C2F89A"/>
<path d="M160.024 67.198C159.504 64.9251 157.481 63.3135 155.15 63.3135H17.5971C15.036 63.3135 12.8891 65.2486 12.6239 67.7959L10.7809 85.5036C10.4125 89.0439 13.1893 92.1247 16.7487 92.1247H18.3606C20.9648 92.1247 23.2737 90.4457 24.4434 88.1191C27.6978 81.6461 35.8422 70.0209 51.0214 74.2906C57.6132 76.1449 61.8031 83.2895 63.8963 87.9536C64.983 90.3752 67.3232 92.1247 69.9775 92.1247H114.516C116.995 92.1247 119.218 90.5995 120.408 88.4255C123.138 83.4414 129.012 75.0965 138.059 74.2906C148.659 73.3463 156.619 85.8346 159.183 90.4487C159.746 91.462 160.801 92.1247 161.961 92.1247C163.889 92.1247 165.318 90.3322 164.888 88.452L160.024 67.198Z" fill="#C2F89A"/>
<path d="M73.826 39.929C73.7437 39.929 73.6604 39.9063 73.5862 39.858C73.3814 39.7256 73.3232 39.4522 73.4561 39.2479L85.6264 20.4717C85.7593 20.2678 86.0322 20.2087 86.2365 20.3416C86.4413 20.474 86.4995 20.7474 86.3666 20.9518L74.1963 39.7279C74.1121 39.858 73.9707 39.929 73.826 39.929Z" fill="#FBFCFF"/>
<path d="M82.867 34.7164C82.7828 34.7164 82.6982 34.6922 82.6225 34.6421C82.4196 34.5068 82.3647 34.233 82.5 34.03L84.5864 30.9007C84.7212 30.6982 84.9941 30.6429 85.1984 30.7782C85.4013 30.9135 85.4562 31.1873 85.3209 31.3902L83.2346 34.5196C83.1499 34.6473 83.0099 34.7164 82.867 34.7164Z" fill="#FBFCFF"/>
<defs>
<linearGradient id="paint0_linear_496_1198" x1="83.9098" y1="13.917" x2="83.9098" y2="55.5109" gradientUnits="userSpaceOnUse">
<stop stop-color="#CDF4FF"/>
<stop offset="1" stop-color="#EEFBFF"/>
</linearGradient>
<linearGradient id="paint1_linear_496_1198" x1="187.139" y1="13.917" x2="187.139" y2="53.1141" gradientUnits="userSpaceOnUse">
<stop stop-color="#CDF4FF"/>
<stop offset="1" stop-color="#EEFBFF"/>
</linearGradient>
<linearGradient id="paint2_linear_496_1198" x1="177.669" y1="72.042" x2="177.669" y2="84.9725" gradientUnits="userSpaceOnUse">
<stop stop-color="#FFEA5F"/>
<stop offset="1" stop-color="#FBEFB5"/>
</linearGradient>
<linearGradient id="paint3_linear_496_1198" x1="218.05" y1="71.6592" x2="218.05" y2="84.5243" gradientUnits="userSpaceOnUse">
<stop stop-color="#FFEA5F"/>
<stop offset="1" stop-color="#FFF6C9"/>
</linearGradient>
</defs>
</svg>
