<svg width="272" height="169" viewBox="0 0 272 169" fill="none" xmlns="http://www.w3.org/2000/svg">
<path d="M15.6801 42.9699L14.5553 48.7208L26.4011 49.4186C71.2438 76.3889 7.11927 37.8186 80.7123 82.0838L199.526 100.487L248.414 93.513L262.174 97.1557L263.298 91.4049L146.818 24.1327C69.546 35.233 96.197 31.4237 15.6801 42.9699Z" fill="#C3F790"/>
<path d="M198.394 106.214L262.176 97.1478L145.682 29.8683L14.5572 48.7127L79.5888 87.8069L198.394 106.214Z" fill="#002E20"/>
<path d="M55.9768 111.774L198.617 139.675C198.739 134.958 198.177 156.761 199.805 93.5573C201.639 84.1805 174.568 70.9914 139.361 64.1048C105.908 57.5614 77.1569 59.0621 72.801 67.2576C72.7232 67.3436 72.6887 67.4178 72.6501 67.5113L72.346 68.3425L55.9768 111.774Z" fill="#2B4441"/>
<path d="M123.747 143.932C163.239 151.657 196.741 150.313 198.576 140.93C200.411 131.548 169.885 117.679 130.393 109.955C90.9012 102.23 57.3989 103.574 55.5637 112.957C53.7284 122.339 84.255 136.207 123.747 143.932Z" fill="#002E20"/>
<path d="M29.19 101.243C28.7862 103.193 28.9398 104.919 29.5173 105.106L29.5495 105.112C30.1302 105.226 30.8951 103.827 31.2919 101.912C45.0172 35.2096 44.2388 39.4264 44.3056 38.8595L42.0141 39.2183L32.7532 83.9396L29.19 101.243Z" fill="url(#paint0_linear_924_1154)"/>
<path d="M72.8029 67.2559C94.4413 64.971 116.714 68.9634 136.906 77.2846C160.02 86.8052 181.062 99.2601 199.218 116.231L199.807 93.5556C201.641 84.1787 174.569 70.9896 139.362 64.103C105.91 57.5596 77.1588 59.0604 72.8029 67.2559Z" fill="#0E3732"/>
<path d="M30.9936 119.153C30.7804 120.067 30.1065 120.946 29.1767 121.06C27.5058 121.257 26.4855 119.167 25.2294 118.39C22.879 116.951 20.9102 120.401 18.806 119.519C18.3671 119.337 18.0361 118.99 17.7038 118.65C17.1904 118.114 16.5023 117.518 15.7676 117.722C15.3895 117.826 15.0201 118.132 14.6623 117.994C14.3878 117.885 14.2647 117.565 14.2185 117.274C13.8588 115.141 15.6334 113.24 17.471 112.107C19.3164 110.969 21.4608 110.13 22.7134 108.367C24.0131 106.538 24.0835 104.069 25.2493 102.152C26.4125 100.248 30.5569 96.9531 32.654 99.3093C33.4612 100.21 33.6282 101.535 33.4229 102.726C33.2241 103.918 32.7047 105.027 32.2833 106.161C31.0649 109.402 30.6099 112.923 30.9607 116.368C31.0546 117.294 31.1989 118.244 30.9936 119.153Z" fill="#002E20"/>
<defs>
<linearGradient id="paint0_linear_924_1154" x1="51.1927" y1="-1.20361" x2="29.8826" y2="105.177" gradientUnits="userSpaceOnUse">
<stop offset="1" stop-color="#F9FF4A"/>
</linearGradient>
</defs>
</svg>
