<svg width="139" height="139" viewBox="0 0 139 139" fill="none" xmlns="http://www.w3.org/2000/svg">
<g clip-path="url(#clip0_496_1178)">
<path d="M5.26074 37.2041L69.9482 69.5478L134.636 37.2041V106.204L69.9482 138.547L5.26074 106.204V37.2041Z" fill="#002C1F"/>
<path d="M5.26074 43.6729V63.8337L69.7325 95.4227L134.635 63.7258V43.6729L69.9482 75.37L5.26074 43.6729Z" fill="#00261A"/>
<path d="M69.9482 138.547V69.5478L9.57328 39.3604H5.26074V106.204L69.9482 138.547Z" fill="#003525"/>
<path d="M5.26074 43.6729V63.8337L69.7325 95.4227L69.9482 95.3149V75.2619V75.3697L5.26074 43.6729Z" fill="#00261A"/>
<path d="M0.948242 34.9419L69.9482 0.549805L138.948 34.9419V39.4702L69.9482 73.8618L0.948242 39.5778V34.9419Z" fill="#003525"/>
<path d="M0.948242 35.0479L69.9482 68.7931L138.948 35.0479V57.365L69.7325 91.1103L0.948242 57.365V35.0479Z" fill="#002C1F"/>
<path d="M95.823 59.0902V56.6107L69.948 42.5951L44.0731 56.6107V59.0902L26.8232 51.5434V48.0935L69.0855 25.7764L69.948 26.2075L70.8106 25.7764L113.073 47.9856V51.4356L95.823 59.0902Z" fill="#C8FFC4"/>
<path d="M95.8232 56.6104V125.503L113.073 116.877V47.9854L95.8232 56.6104Z" fill="#9AF393"/>
<path d="M26.8232 116.985L44.0731 125.61V56.7183L26.8232 47.9854V116.985Z" fill="#9AF393"/>
<path d="M109.515 11.437C107.251 7.34018 102.399 4.86035 96.6853 4.86035C83.6401 4.86035 74.476 17.0432 69.9478 24.8058C65.4196 17.0432 56.1479 4.96821 43.2103 4.96821C34.9088 4.96821 28.979 10.0354 28.979 16.9354C28.979 29.2259 42.4556 37.2041 69.5164 37.2041C96.5772 37.2041 110.916 26.962 110.916 17.0432C110.917 15.1027 110.485 13.1621 109.515 11.437ZM46.0137 24.6982C42.9949 22.6498 41.9169 20.3856 41.9169 18.8762C41.9169 17.0435 43.642 15.642 46.1216 15.642C51.9435 15.642 56.5793 23.2966 59.1667 28.5796C52.3747 28.0403 48.3854 26.2073 46.0137 24.6982ZM93.8822 24.6982C91.5102 26.2076 87.5212 28.0403 80.7291 28.5793C83.2087 23.2966 87.8448 15.6417 93.7743 15.6417C96.2539 15.6417 97.979 17.0432 97.979 18.876C97.9793 20.3856 96.901 22.6495 93.8822 24.6982Z" fill="#DBFF66"/>
</g>
<defs>
<clipPath id="clip0_496_1178">
<rect width="138" height="138" fill="white" transform="translate(0.948242 0.547852)"/>
</clipPath>
</defs>
</svg>
