<svg width="214" height="214" viewBox="0 0 214 214" fill="none" xmlns="http://www.w3.org/2000/svg">
<g clip-path="url(#clip0_921_890)">
<path fill-rule="evenodd" clip-rule="evenodd" d="M199.83 74.0297C197.919 80.3377 195.612 86.2801 193.65 92.497C191.222 100.196 188.509 107.999 186.125 115.913C183.789 123.674 180.613 131.766 176.32 136.942C175.113 138.398 173.844 139.638 171.989 140.354C170.087 141.086 167.623 141.003 165.147 140.58C160.928 139.862 156.835 138.561 152.948 137.398C144.772 134.95 137.288 132.764 129.234 130.236C113.655 125.351 98.2701 120.249 82.6039 115.005C75.0024 112.46 66.7596 110.281 59.2311 107.388C51.9229 104.582 44.2801 101.149 43.7255 92.0423C43.4259 87.1246 44.4336 82.516 45.4354 78.2897C46.4352 74.0771 47.82 70.1096 48.9704 66.3517C52.6235 54.4275 56.3103 42.5311 59.8912 30.5303L128.296 39.6364L199.83 74.0297Z" fill="#002E20"/>
<path d="M201.859 42.5947C200.912 40.5367 199.676 38.9633 198.124 37.6691C197.712 38.5253 197.086 38.7811 196.563 38.9646C195.448 39.3552 193.523 38.8132 192.118 38.3959C187.893 37.1429 184.837 36.0616 180.374 34.7595C178.027 34.0731 175.187 33.3093 172.28 32.4843C170.02 31.842 165.884 31.1215 165.324 29.1899C165.006 28.0891 165.562 26.653 166.507 25.8114C164.072 25.0759 161.553 24.3729 158.877 23.7247C157.87 27.2696 156.726 30.4612 155.571 34.1837C154.73 36.892 153.758 42.1779 150.782 43.1639C149.187 43.6914 147.474 43.1518 145.652 42.7092C137.889 40.8238 130.617 39.1917 123.533 36.5717C120.669 35.5092 117.645 34.2965 116.807 32.0221C115.573 28.6753 117.12 24.5551 117.834 21.566C118.647 18.1567 119.45 15.0928 120.341 12.0164C118.604 11.535 116.887 11.0795 115.182 10.6348C115.19 10.6614 115.206 10.6868 115.212 10.7142C115.614 12.5043 114.26 14.1593 113.273 14.505C112.157 14.8931 110.235 13.9375 108.827 13.5194C104.603 12.2672 101.547 11.1864 97.0837 9.8822C94.7367 9.19785 91.8981 8.43488 88.9886 7.60909C86.7271 6.96593 83.0098 6.66016 82.4523 4.72943C82.2316 3.97436 82.0096 3.28253 82.4565 2.38893C80.916 2.21628 79.3334 2.09439 77.8158 2.24166C73.3658 2.67473 70.6495 5.79235 68.6947 8.94741C66.646 12.2547 65.1906 15.9851 63.7936 19.5204C62.3666 23.1244 60.9501 27.0923 59.9023 30.5569L199.803 74.1C201.501 68.5038 202.894 62.6246 203.456 56.0071C203.856 51.2687 203.662 46.5136 201.859 42.5947Z" fill="url(#paint0_linear_921_890)"/>
<path d="M115.211 10.7139C115.205 10.6865 115.189 10.6611 115.181 10.6344C114.697 9.05234 110.571 7.76228 108.712 7.07585C103.281 5.07274 98.1051 3.85506 92.9787 2.52922C90.2407 1.8224 87.5094 0.809406 84.428 0.824383C83.1808 0.830623 82.456 2.3886 82.456 2.3886C82.0087 3.2822 81.8139 4.39005 82.0346 5.14512C82.5921 7.07585 86.7266 7.79764 88.9881 8.4408C91.8976 9.26659 94.7362 10.0296 97.0833 10.7139C101.546 12.0181 104.602 13.0993 108.826 14.3511C110.235 14.7696 112.157 15.3088 113.272 14.9207C114.259 14.5754 115.613 12.5044 115.211 10.7139Z" fill="#002E20"/>
<path d="M198.502 35.1757C198.137 33.5565 193.892 32.2357 192.004 31.5376C186.572 29.5345 181.396 28.3156 176.269 26.9889C173.533 26.2829 171.132 25.2865 167.718 25.2861C167.028 25.2861 166.507 25.8116 166.507 25.8116C165.563 26.6532 165.006 28.5053 165.324 29.606C165.884 31.5376 170.019 32.2581 172.28 32.9005C175.187 33.7254 178.028 34.4892 180.374 35.1757C184.838 36.4778 187.893 37.559 192.118 38.812C193.523 39.2293 195.448 39.7714 196.564 39.3807C197.086 39.1969 197.712 38.5254 198.125 37.6693C198.49 36.9138 198.689 36.0123 198.502 35.1757Z" fill="#002E20"/>
<path d="M117.656 20.7526L116.623 24.1808C116.304 25.2384 116.904 26.3526 117.962 26.6695L153.217 37.229C154.275 37.5459 155.391 36.9455 155.71 35.8879L156.743 32.4598C157.061 31.4022 156.462 30.2879 155.404 29.971L120.149 19.4116C119.09 19.0946 117.974 19.6951 117.656 20.7526Z" fill="#002E20"/>
<path fill-rule="evenodd" clip-rule="evenodd" d="M30.4607 60.8264C32.2227 71.9465 33.5079 83.2156 34.6177 95.9069C35.1222 101.697 35.8941 107.443 36.0744 114.078C36.2179 119.328 37.4008 127.535 35.2461 131.708C34.6958 132.773 33.4878 134.099 32.1968 134.242C30.3442 134.449 28.7203 132.93 27.9521 131.904C25.2917 128.347 24.4764 121.486 23.6699 116.149C21.0341 98.7179 19.8908 79.2002 17.1399 62.4526C15.0882 62.5134 12.2734 62.7139 12.2154 60.5739C12.1574 58.4664 16.2899 57.7171 19.1322 57.0869C22.555 56.3276 25.8534 55.8026 28.4654 55.6179C31.3603 55.4166 34.8564 55.3783 34.9845 57.4779C35.1043 59.4527 32.1084 60.264 30.4607 60.8264Z" fill="#B4DBF6"/>
<path fill-rule="evenodd" clip-rule="evenodd" d="M32.6821 95.5817C32.4568 92.9932 32.2164 90.4967 31.9619 88.0605L22.8662 89.0652C23.5872 95.8833 24.2678 102.816 25.2516 109.324C25.7991 112.947 27.2223 127.404 29.0278 129.816C29.5477 130.516 30.6517 131.545 31.9085 131.404C32.7843 131.308 33.6055 130.408 33.9797 129.686C35.4414 126.851 33.7699 111.483 33.6722 107.919C33.5496 103.415 33.0267 99.5126 32.6821 95.5817Z" fill="url(#paint1_linear_921_890)"/>
<path fill-rule="evenodd" clip-rule="evenodd" d="M101.061 173.919C101.139 173.106 100.67 172.196 100.67 171.367C97.614 169.541 94.5147 169.076 91.2605 169.857C88.3323 170.559 85.2692 171.823 82.343 170.504C81.425 170.088 80.1654 169.195 79.3588 168.092C78.1542 166.444 77.792 164.586 77.6798 163.165C77.4415 160.129 78.6824 157.133 78.3378 153.907C78.1488 152.131 77.3147 150.113 76.1948 148.321C74.8496 146.171 73.2469 144.295 72.1675 142.25C71.2437 140.496 70.6378 138.429 70.8327 136.72C71.1164 134.214 73.7856 131.983 75.7679 132.249C77.8029 132.521 80.0857 134.74 82.0555 136.796C84.0746 138.904 86.1075 140.824 88.3452 141.341C89.5043 141.609 90.6134 141.538 91.6573 141.489C92.6658 141.439 93.8162 141.406 95.0338 140.817C94.8447 140.259 94.7312 139.715 94.6478 139.175C94.3061 138.933 93.9673 139.211 93.6798 139.26C91.7237 139.604 88.7633 139.778 86.7225 138.496C84.8186 137.301 83.2722 135.126 81.5715 133.562C78.7438 130.959 75.3352 128.798 71.9351 131.185C68.1856 133.814 68.5107 138.971 70.1534 142.488C71.8199 146.055 75.4542 149.5 76.2699 152.975C76.965 155.949 75.8247 158.586 75.7421 161.509C75.6791 163.737 75.9707 166.563 77.8646 169.248C79.4652 171.518 81.9036 172.724 83.7671 173.066C87.9017 173.821 91.979 170.974 96.1395 171.678C97.8106 171.962 99.2405 172.852 101.061 173.919Z" fill="#0F0F0F"/>
<path fill-rule="evenodd" clip-rule="evenodd" d="M202.805 148.668C200.663 145.624 196.646 143.013 195.337 139.918C194.218 137.267 194.92 134.634 194.559 131.908C194.283 129.83 193.578 127.253 191.349 125.064C189.465 123.214 186.936 122.487 185.092 122.471C180.998 122.433 177.504 125.735 173.394 125.754C172.569 125.756 171.779 125.609 170.959 125.374C170.953 126.014 170.852 126.652 170.662 127.261C173.305 127.916 175.848 127.7 178.364 126.657C181.074 125.535 183.834 123.866 186.848 124.62C187.795 124.859 189.142 125.485 190.084 126.379C191.493 127.714 192.122 129.381 192.445 130.684C193.132 133.465 192.388 136.446 193.205 139.387C193.656 141.005 194.761 142.743 196.11 144.228C197.727 146.008 199.554 147.491 200.901 149.215C202.057 150.694 202.95 152.517 203.02 154.137C203.125 156.51 200.89 159.011 198.945 159.083C196.943 159.159 194.412 157.465 192.207 155.875C189.945 154.242 187.697 152.788 185.467 152.667C184.311 152.604 183.254 152.849 182.258 153.064C181.293 153.273 180.19 153.488 179.107 154.233C179.376 154.719 179.567 155.206 179.727 155.693C180.093 155.863 180.378 155.551 180.646 155.459C182.476 154.824 185.3 154.185 187.457 155.047C189.47 155.849 191.287 157.621 193.159 158.798C196.274 160.759 199.881 162.217 202.793 159.452C206.006 156.408 204.917 151.671 202.805 148.668Z" fill="#0F0F0F"/>
<path fill-rule="evenodd" clip-rule="evenodd" d="M172.6 124.753C172.977 125.28 173.206 125.955 173.4 126.573C176.293 135.797 178.905 145.622 180.98 155.484C176.453 160.66 171.152 164.998 165.61 168.801C160.082 172.598 154.305 175.862 147.667 177.939C140.929 180.05 133.29 180.102 124.768 179.307C116.482 178.534 107.362 177.49 98.5149 174.57C96.2721 163.733 94.6628 152.811 93.7686 140.819C93.7135 140.062 93.5216 138.823 93.6326 138.495C93.87 137.784 96.3518 136.576 97.3849 135.937C101.334 133.49 105.28 131.664 109.533 129.668C115.211 127.003 120.861 124.624 126.976 123.263C133.223 121.869 140.105 121.02 147.263 121.314C155.186 121.64 164.026 123.221 172.6 124.753Z" fill="#B4DBF6"/>
<g opacity="0.26">
<path fill-rule="evenodd" clip-rule="evenodd" d="M172.577 138.776C172.912 138.797 172.906 139.142 172.612 139.111C165.769 139.132 159.157 139.751 152.777 140.503C146.371 141.257 140.186 142.194 134.187 143.701C128.184 145.207 122.332 146.757 116.626 148.659C113.799 149.601 111.044 150.717 108.265 151.722C106.845 152.238 105.415 152.673 103.99 153.18C102.616 153.67 101.276 154.362 99.8223 154.658C102.155 152.874 104.858 151.718 107.453 150.448C115.255 146.629 123.407 143.334 132.433 141.233C141.651 139.087 151.167 138.503 161.662 138.539C165.168 138.549 168.846 138.662 172.577 138.776Z" fill="#1A4E72"/>
<path fill-rule="evenodd" clip-rule="evenodd" d="M101.464 167.926C103.084 167.327 104.819 167.496 106.514 167.408C111.377 167.158 116.726 166.798 121.843 166.548C128.708 166.213 135.412 165.491 141.794 164.636C145.165 164.184 148.278 163.722 151.281 162.914C154.257 162.115 157.14 161.051 159.956 159.919C165.571 157.669 170.729 154.292 176.125 151.371C176.249 151.383 176.304 151.437 176.308 151.523C174.112 153.639 171.455 155.176 168.968 156.892C166.49 158.599 164.09 160.409 161.488 161.899C156.253 164.905 150.528 166.878 143.928 167.843C134.224 169.264 123.665 169.395 112.634 168.986C108.99 168.852 105.176 168.839 101.464 167.926Z" fill="#1A4E72"/>
<path fill-rule="evenodd" clip-rule="evenodd" d="M101.358 144.83C103.283 143.62 105.298 142.519 107.375 141.464C113.518 138.341 120.106 135.292 127.166 133.392C131.964 132.101 136.896 131.192 142.134 130.702C147.315 130.218 152.706 130.242 158.378 130.153C148.104 131.1 138.178 133.019 128.756 135.605C119.304 138.199 110.296 141.635 101.358 144.83Z" fill="#1A4E72"/>
<path fill-rule="evenodd" clip-rule="evenodd" d="M171.286 145.049C171.576 145.239 171.019 145.337 170.75 145.476C166.548 147.655 161.914 149.582 157.511 151.722C152.873 153.977 148.224 156.518 143.097 157.816C137.694 159.189 131.967 159.403 126.249 160.089C120.634 160.765 114.961 161.585 109.236 162.108C109.503 161.403 110.38 161.523 110.93 161.39C115.401 160.314 120.431 159.585 125.146 158.641C127.822 158.107 130.545 157.491 133.206 156.931C146.475 154.14 158.881 149.039 171.286 145.049ZM112.337 161.484C112.424 161.415 113.045 161.5 112.72 161.242C112.708 161.432 112.053 161.294 112.337 161.484Z" fill="#1A4E72"/>
</g>
<path fill-rule="evenodd" clip-rule="evenodd" d="M101.267 195.798C104.068 194.443 106.008 191.825 106.077 188.423C106.143 185.173 104.281 181.807 101.814 180.321C99.5862 178.979 95.9724 178.594 93.1952 179.938C90.6758 181.158 88.8595 183.502 89.1011 187.204C83.676 182.965 38.5789 145.003 23.5344 134.681C20.9862 132.93 18.9359 131.774 17.624 131.463C17.624 131.463 76.7767 181.919 78.5909 183.298C80.3747 184.657 82.1876 186.075 83.9134 187.618C85.3708 188.922 87.3282 190.401 89.0585 192.031C90.7939 193.668 92.9114 195.259 94.7277 195.982C96.5662 196.715 99.6196 196.594 101.267 195.798ZM93.1918 192.45C91.8504 191.113 90.5544 187.962 91.5549 185.257C92.1441 183.664 93.6754 181.792 96.4656 181.455C99.1368 181.128 101.268 182.518 102.368 184.147C102.605 184.495 103.141 185.433 103.317 185.996C104.82 190.78 101.172 194.527 97.278 194.301C95.5439 194.2 94.2646 193.517 93.1918 192.45Z" fill="#B4DBF6"/>
<path fill-rule="evenodd" clip-rule="evenodd" d="M88.9965 201.835C88.1148 200.095 86.3373 198.135 84.5486 196.555C82.769 194.978 81.1192 193.165 79.6871 191.832C77.9939 190.255 76.4171 188.581 74.9033 186.929C73.3649 185.248 17.292 131.438 17.292 131.438C17.7163 132.712 19.0532 134.647 21.026 137.024C32.6665 151.056 75.0177 192.006 79.7314 197.021C76.0116 197.106 73.8289 199.118 72.8329 201.729C71.7347 204.605 72.437 208.16 73.9737 210.254C75.6765 212.574 79.2056 214.125 82.446 213.774C85.8379 213.406 88.2817 211.248 89.3895 208.348C90.0396 206.641 89.8886 203.598 88.9965 201.835ZM87.5415 204.518C88.1119 208.367 84.6913 212.32 79.7794 211.248C79.1994 211.123 78.2163 210.672 77.8471 210.469C76.1217 209.519 74.5474 207.526 74.635 204.844C74.7256 202.042 76.4622 200.357 78.0023 199.629C80.6151 198.398 83.8784 199.409 85.333 200.623C86.4938 201.593 87.2887 202.807 87.5415 204.518Z" fill="#B4DBF6"/>
<path fill-rule="evenodd" clip-rule="evenodd" d="M71.3442 174.843C72.0355 175.464 72.2346 176.365 71.7944 176.852L68.0291 181.004C67.5889 181.492 66.6688 181.383 65.9816 180.761C65.2902 180.14 65.0904 179.241 65.5335 178.753L69.2967 174.601C69.7377 174.115 70.6557 174.223 71.3442 174.843Z" fill="#90B2C9"/>
<path d="M120.185 67.9993L127.21 70.2912L117.286 100.713L110.26 98.4215L120.185 67.9993Z" fill="white"/>
<path d="M102.405 82.7478L104.697 75.7222L135.119 85.6466L132.827 92.6721L102.405 82.7478Z" fill="white"/>
</g>
<defs>
<linearGradient id="paint0_linear_921_890" x1="148.461" y1="15.4743" x2="131.766" y2="74.1" gradientUnits="userSpaceOnUse">
<stop stop-color="#A3F26B"/>
<stop offset="1" stop-color="#FAFFD2"/>
</linearGradient>
<linearGradient id="paint1_linear_921_890" x1="28.7213" y1="88.0605" x2="28.7213" y2="131.417" gradientUnits="userSpaceOnUse">
<stop stop-color="#F3FFDF"/>
<stop offset="1" stop-color="#C8FA6E"/>
</linearGradient>
<clipPath id="clip0_921_890">
<rect width="213.633" height="213" fill="white" transform="translate(0.0126953 0.824219)"/>
</clipPath>
</defs>
</svg>
