<svg width="140" height="143" viewBox="0 0 140 143" fill="none" xmlns="http://www.w3.org/2000/svg">
<path d="M80.9375 111.827V84.4756H68.472V93.0635H40.496C37.5033 93.0896 35.083 95.5098 35.083 98.5026V111.853C35.083 119.114 40.9645 124.995 48.2252 124.995H48.2512H67.8214C75.0821 124.969 80.9635 119.088 80.9375 111.827Z" fill="#002E20"/>
<path d="M68.4976 125.826C68.2894 120.856 64.2297 116.952 59.2591 116.952H56.7868C51.8162 116.952 47.7564 120.882 47.5742 125.852L68.4976 125.826Z" fill="#AE815C"/>
<path d="M68.5238 132.96V125.829H47.5743V132.96C47.5483 138.06 51.6862 142.198 56.7869 142.224H56.8129H59.2852C64.3859 142.198 68.5238 138.06 68.5238 132.96Z" fill="#21160E"/>
<path d="M80.9112 84.4754V77.6571C80.9112 75.9656 79.558 74.6123 77.8664 74.6123H71.5165C69.8249 74.6123 68.4717 75.9656 68.4717 77.6571V84.4754H80.9112Z" fill="#AE815C"/>
<path d="M114.508 75.6302L88.7441 66.3916L84.5282 78.1285L92.6217 81.0172L83.175 107.38C82.16 110.19 83.6174 113.287 86.428 114.302L98.9976 118.804C105.842 121.25 113.363 117.711 115.809 110.867L122.419 92.4418C124.866 85.6234 121.326 78.1025 114.508 75.6302Z" fill="url(#paint0_linear_496_1083)"/>
<path d="M125.372 92.6396C125.278 92.3061 125.015 92.0405 124.678 91.9629C119.443 90.76 113.981 93.2455 112.148 97.7738C110.251 102.458 112.872 109.934 118.118 111.808C127.61 105.63 127.783 101.186 125.372 92.6396Z" fill="#8B6648"/>
<path d="M129.46 101.529C128.541 101.309 126.503 95.7821 125.466 92.8007C125.196 92.027 124.175 91.8703 123.717 92.5492C120.414 97.4377 111.329 111.748 118.104 111.802C122.766 111.838 126.524 107.733 128.212 105.453C129.901 103.173 137.318 112.871 139.18 105.453C140.785 99.0583 130.72 101.832 129.46 101.529Z" fill="#1C0E04"/>
<path d="M129.002 101.159C129.753 101.612 129.541 101.417 129.945 101.576C129.945 101.576 129.966 104.496 129.945 104.944C129.924 105.392 128.644 105.225 128.657 105.072C128.67 104.92 129.002 101.159 129.002 101.159Z" fill="url(#paint1_linear_496_1083)"/>
<path d="M88.7443 66.3902L82.3164 64.1001C80.7289 63.5275 78.9853 64.3603 78.4128 65.9218V65.9478L76.2788 71.9073C75.7063 73.4948 76.539 75.2384 78.1005 75.8109H78.1265L84.5284 78.1271L88.7443 66.3902Z" fill="#8B6648"/>
<path d="M91.8926 33.7836L75.7056 55.8521L85.7509 63.2169L90.8256 56.2945L113.388 72.8458C115.809 74.6155 119.192 74.095 120.962 71.6747L128.873 60.9008C133.167 55.0453 131.892 46.8217 126.036 42.5277L110.24 30.947C104.384 26.679 96.1866 27.9542 91.8926 33.7836Z" fill="#002E20"/>
<path d="M110.212 29.8799C107.428 33.9917 108.391 39.5609 112.398 42.5016L114.376 43.9589C118.384 46.8736 123.979 46.145 127.076 42.2674L110.212 29.8799Z" fill="#967458"/>
<path d="M114.403 24.129L110.396 29.5941L110.213 29.8803L127.077 42.2678L127.311 41.9815L131.319 36.4904C134.338 32.3786 133.427 26.6013 129.315 23.5825L127.337 22.1251C123.225 19.1063 117.448 19.9912 114.429 24.103C114.403 24.103 114.403 24.129 114.403 24.129Z" fill="#140901"/>
<path d="M75.7057 55.8525L71.6719 61.3436C70.683 62.6969 70.9693 64.5966 72.3225 65.6116L77.4493 69.3591C78.8025 70.348 80.7023 70.0617 81.7172 68.7085L85.751 63.2174L75.7057 55.8525Z" fill="#967458"/>
<path d="M38.2044 89.8877L63.6039 79.6863L58.9716 68.1315L50.9822 71.3325L40.5465 45.3604C39.4535 42.6019 36.3306 41.2226 33.5461 42.3156C33.5461 42.3156 33.52 42.3156 33.52 42.3416L21.1065 47.3383C14.3923 50.0448 11.1393 57.6959 13.8198 64.4101L21.1325 82.5749C23.813 89.3152 31.4381 92.5942 38.1783 89.8877H38.2044Z" fill="url(#paint2_linear_496_1083)"/>
<path d="M20.5864 83.5368C25.1146 81.5069 27.2486 76.25 25.4008 71.6437L24.464 69.3536C22.6163 64.7474 17.4635 62.4312 12.8052 64.0968L20.5864 83.5368Z" fill="#976D4A"/>
<path d="M13.9764 86.1931L20.2743 83.6688L20.5866 83.5387L12.8054 64.0986L12.441 64.2288L6.16921 66.7531C1.43282 68.6529 -0.857306 74.0399 1.04246 78.7762L1.9533 81.0664C3.85306 85.8028 9.24005 88.0929 13.9764 86.1931Z" fill="#342316"/>
<path d="M63.604 79.6867L69.9278 77.1363C71.4893 76.5117 72.244 74.7421 71.6194 73.1806L69.2512 67.2732C68.6266 65.7117 66.857 64.957 65.2955 65.5816L58.9717 68.132L63.604 79.6867Z" fill="#976D4A"/>
<path d="M42.7077 40.8581L57.8797 63.6292L68.2373 56.7329L63.4749 49.6022L86.7925 34.0919C89.2648 32.4263 89.9414 29.0692 88.2759 26.5709L80.885 15.4586C76.8513 9.421 68.7057 7.78148 62.6682 11.7892L46.3771 22.6413C40.3395 26.649 38.6999 34.8205 42.7077 40.8581Z" fill="url(#paint3_linear_496_1083)"/>
<path d="M45.3354 22.3284C48.2502 26.3362 53.7933 27.3511 57.9311 24.5925L59.987 23.2393C64.1249 20.5068 65.374 14.9636 62.7716 10.7217L45.3354 22.3284Z" fill="#B68C6A"/>
<path d="M41.3804 16.3706L45.1279 22.0179L45.3361 22.3301L62.7722 10.7234L62.564 10.4111L58.8166 4.76386C55.9799 0.521929 50.2286 -0.623133 45.9867 2.2135L43.9568 3.56675C39.7149 6.37736 38.5438 12.0766 41.3544 16.3446L41.3804 16.3706Z" fill="#B68C6A"/>
<path d="M57.8799 63.6317L61.6534 69.305C62.5642 70.7103 64.438 71.1007 65.8172 70.1898C65.8433 70.1898 65.8433 70.1638 65.8693 70.1638L71.1782 66.6505C72.5835 65.7137 72.9478 63.8139 72.011 62.4086L68.2375 56.7354L57.8799 63.6317Z" fill="#B68C6A"/>
<defs>
<linearGradient id="paint0_linear_496_1083" x1="138.024" y1="101.023" x2="78.8881" y2="84.0488" gradientUnits="userSpaceOnUse">
<stop stop-color="#DFFF7F"/>
<stop offset="1" stop-color="#C0F767"/>
</linearGradient>
<linearGradient id="paint1_linear_496_1083" x1="129.954" y1="103.385" x2="129.305" y2="105.233" gradientUnits="userSpaceOnUse">
<stop stop-color="#E9080C"/>
<stop offset="1" stop-color="#580001"/>
</linearGradient>
<linearGradient id="paint2_linear_496_1083" x1="24.4188" y1="69.4722" x2="57.6466" y2="66.3887" gradientUnits="userSpaceOnUse">
<stop stop-color="#DBFF66"/>
<stop offset="1" stop-color="#90E005"/>
</linearGradient>
<linearGradient id="paint3_linear_496_1083" x1="64.8528" y1="9.59668" x2="64.8528" y2="63.6293" gradientUnits="userSpaceOnUse">
<stop stop-color="#8DE84C"/>
<stop offset="1" stop-color="#BBFC8C"/>
</linearGradient>
</defs>
</svg>
