<svg width="844" height="839" viewBox="0 0 844 839" fill="none" xmlns="http://www.w3.org/2000/svg">
<path d="M237.43 308.193L249.773 224.444L323.938 233.487L362.826 210.654L404.422 205.433L472.963 192.155L541.332 148.836L589.173 219.59L610.197 255.015L620.468 298.085L659.872 338.121L761.284 392.531L739.347 439.695L725.286 464.021L693.585 510.387L658.426 556.69L607.957 592.985L496.615 605.042L444.661 636.163L396.201 655.211L294.886 623.65L204.649 581.497L174.882 548.517L143.295 513.521L137.571 471.871L157.737 428.083L180.944 381.408L237.43 308.193Z" fill="#002E20"/>
<g clip-path="url(#clip0_447_1495)">
<g filter="url(#filter0_i_447_1495)">
<path d="M406.138 486.535C397.617 475.772 391.772 461.832 389.221 446.126C384.935 419.73 404.296 394.533 432.328 389.982C460.414 385.421 486.699 403.207 490.985 429.602C491.472 432.601 494.324 434.657 497.324 434.17C500.324 433.683 502.379 430.83 501.892 427.831C496.623 395.382 464.642 373.539 430.557 379.074C396.473 384.609 373.054 415.503 378.314 447.897C381.165 465.458 387.812 481.226 397.516 493.42C407.013 505.368 413.122 510.589 424.107 518.6C425.374 519.514 426.826 519.838 428.244 519.608C429.608 519.386 430.946 518.665 431.741 517.36C433.586 514.934 433.02 511.444 430.547 509.662C420.776 502.573 415.21 497.936 406.138 486.535Z" fill="#007600"/>
<path d="M361.315 335.969C378.365 322.733 397.919 314.24 419.57 310.724C441.275 307.2 460.188 308.887 482.829 316.293C483.709 316.542 484.563 316.627 485.436 316.486C487.399 316.167 489.13 314.766 489.811 312.753C490.74 309.859 489.164 306.701 486.27 305.771C462.151 297.877 441.031 296.045 417.799 299.818C394.349 303.625 373.065 312.847 354.521 327.221C352.087 329.127 351.692 332.55 353.543 334.992C355.45 337.425 358.873 337.821 361.315 335.969Z" fill="#007600"/>
<path d="M425.863 352.578C390.688 358.29 361.709 383.202 352.089 415.997C348.8 427.11 348.222 439.406 350.347 452.495C352.738 467.219 357.641 480.864 365.314 494.339C366.865 496.998 370.204 497.911 372.871 496.414C375.53 494.863 376.443 491.525 374.946 488.857C365.632 472.514 362.69 459.222 361.308 450.715C359.449 439.262 359.902 428.61 362.721 419.084C371.143 390.289 396.649 368.46 427.68 363.422C471.254 356.346 512.13 384.021 518.807 425.14C520.711 436.865 512.054 448.01 499.565 450.038C487.077 452.066 475.329 444.178 473.434 432.508C470.556 414.784 453.166 402.83 434.624 405.841C416.081 408.852 403.367 425.694 406.246 443.418C409.743 464.959 421.428 483.829 439.105 496.519C452.788 506.331 465.177 510.924 483.344 512.844C483.807 512.937 484.306 512.912 484.797 512.832C487.196 512.443 489.121 510.507 489.386 508.001C489.735 504.978 487.503 502.262 484.479 501.913C468.418 500.211 457.462 496.168 445.49 487.59C430.222 476.635 420.126 460.307 417.107 441.71C415.203 429.985 423.86 418.84 436.349 416.812C448.837 414.785 460.585 422.672 462.48 434.343C465.358 452.067 482.802 464.011 501.29 461.009C519.778 458.007 532.546 441.157 529.668 423.433C522.018 376.314 475.436 344.528 425.863 352.578Z" fill="#007600"/>
<path d="M527.092 359.312C513.778 345.913 498.104 336.256 480.435 330.505C443.208 318.415 399.37 325.589 367.946 348.883C352.957 359.993 341.108 374.231 332.789 391.255C331.443 393.992 332.592 397.276 335.329 398.623C336.417 399.118 337.561 399.268 338.652 399.091C340.343 398.816 341.909 397.778 342.761 396.129C350.273 380.692 361 367.811 374.54 357.776C403.167 336.56 443.133 330.014 477.049 341.019C492.995 346.154 507.183 354.933 519.231 367.082C521.374 369.253 524.899 369.241 527.069 367.097C529.24 364.952 529.236 361.483 527.092 359.312Z" fill="#007600"/>
<path d="M512.576 472.947C508.338 474.419 503.965 475.409 501.347 475.834C490.44 477.605 480.971 476.512 472.431 472.525C457.718 465.679 447.454 452.457 444.966 437.132C444.479 434.132 441.626 432.077 438.627 432.564C435.627 433.051 433.571 435.903 434.058 438.903C437.14 457.881 449.752 474.193 467.738 482.579C478.209 487.427 490.138 488.849 503.117 486.741C504.645 486.493 510.035 485.562 516.23 483.38C519.086 482.357 520.643 479.194 519.62 476.337C518.596 473.481 515.433 471.924 512.576 472.947Z" fill="#007600"/>
</g>
</g>
<defs>
<filter id="filter0_i_447_1495" x="332.225" y="297.93" width="199.848" height="229.75" filterUnits="userSpaceOnUse" color-interpolation-filters="sRGB">
<feFlood flood-opacity="0" result="BackgroundImageFix"/>
<feBlend mode="normal" in="SourceGraphic" in2="BackgroundImageFix" result="shape"/>
<feColorMatrix in="SourceAlpha" type="matrix" values="0 0 0 0 0 0 0 0 0 0 0 0 0 0 0 0 0 0 127 0" result="hardAlpha"/>
<feOffset dx="2" dy="8"/>
<feGaussianBlur stdDeviation="4"/>
<feComposite in2="hardAlpha" operator="arithmetic" k2="-1" k3="1"/>
<feColorMatrix type="matrix" values="0 0 0 0 0.792157 0 0 0 0 1 0 0 0 0 0.752941 0 0 0 1 0"/>
<feBlend mode="normal" in2="shape" result="effect1_innerShadow_447_1495"/>
</filter>
<clipPath id="clip0_447_1495">
<rect width="221" height="221" fill="white" transform="translate(308.627 317.543) rotate(-9.22314)"/>
</clipPath>
</defs>
</svg>
